<?xml version="1.0" standalone="no"?>
<!DOCTYPE svg PUBLIC "-//W3C//DTD SVG 20010904//EN"
 "http://www.w3.org/TR/2001/REC-SVG-20010904/DTD/svg10.dtd">
<svg version="1.0" xmlns="http://www.w3.org/2000/svg"
 width="1024.000000pt" height="1024.000000pt" viewBox="0 0 1024.000000 1024.000000"
 preserveAspectRatio="xMidYMid meet">
<metadata>
Created by potrace 1.11, written by Peter Selinger 2001-2013
</metadata>
<g transform="translate(0.000000,1024.000000) scale(0.100000,-0.100000)"
fill="#000000" stroke="none">
<path d="M0 5120 l0 -5120 5120 0 5120 0 0 5120 0 5120 -5120 0 -5120 0 0
-5120z m5570 4960 c12 -12 24 -31 28 -43 12 -35 7 -1552 -5 -1627 -6 -36 -20
-81 -31 -100 -11 -19 -23 -51 -26 -71 -9 -50 -38 -76 -70 -61 -19 8 -27 24
-36 69 -7 32 -20 69 -29 83 -33 48 -44 91 -45 178 -4 396 7 1529 15 1545 26
47 161 65 199 27z m-743 -42 c28 -33 53 -91 53 -126 0 -24 -10 -39 -45 -67
l-45 -37 40 -46 c22 -24 40 -54 40 -65 0 -11 -17 -45 -37 -75 l-38 -54 0 -112
c-1 -123 4 -145 40 -188 33 -40 31 -75 -7 -134 -30 -44 -33 -56 -34 -129 -1
-83 -10 -135 -24 -135 -11 0 -20 87 -18 165 2 47 -4 73 -26 122 l-29 63 29 57
c27 55 28 64 25 178 -2 102 -6 128 -27 174 -32 70 -31 85 11 133 40 47 36 66
-21 100 -36 21 -42 42 -20 73 7 11 16 34 20 50 12 50 34 75 64 75 17 0 37 -9
49 -22z m-859 -170 c3 -25 0 -28 -26 -28 -38 0 -60 24 -42 46 8 8 25 14 39 12
20 -2 27 -9 29 -30z m91 -84 c13 -30 14 -64 2 -83 -7 -11 -14 -4 -30 27 -21
41 -27 73 -15 85 11 10 31 -3 43 -29z m2766 -39 c104 -20 132 -32 148 -63 11
-23 18 -26 65 -26 41 -1 57 -6 68 -20 18 -26 18 -28 -7 -60 -16 -21 -29 -26
-64 -26 -36 0 -50 6 -75 30 -36 35 -66 44 -126 37 -35 -4 -54 -14 -94 -51 -56
-53 -76 -56 -114 -21 -33 30 -46 32 -46 5 0 -49 -36 -90 -79 -90 -22 0 -106
-87 -116 -121 -4 -13 -22 -40 -40 -60 -21 -24 -35 -51 -39 -78 -3 -22 -9 -59
-12 -82 -5 -33 -12 -43 -40 -56 -35 -17 -64 -70 -64 -118 0 -43 37 -124 69
-151 34 -29 40 -66 16 -98 -8 -11 -15 -27 -15 -37 0 -13 -6 -15 -32 -10 -26 5
-38 16 -55 50 -12 24 -32 54 -43 66 -14 15 -20 35 -20 71 0 36 -8 62 -30 99
-27 45 -30 59 -30 138 0 78 3 92 25 125 19 28 25 50 25 90 0 49 3 58 34 86 19
18 37 46 41 66 12 53 184 212 245 225 19 4 53 18 76 31 34 20 181 59 234 63 8
1 51 -6 95 -14z m-3017 -82 c-2 -27 -8 -39 -20 -41 -14 -3 -18 3 -18 25 0 28
15 53 33 53 4 0 7 -17 5 -37z m342 -241 c8 -96 3 -193 -11 -207 -18 -18 -49
32 -50 84 -4 107 3 216 14 223 23 14 40 -21 47 -100z m3040 63 c0 -23 -2 -24
-20 -15 -11 6 -20 17 -20 25 0 8 9 15 20 15 15 0 20 -7 20 -25z m-3444 -37
c13 -42 6 -230 -11 -277 -8 -24 -15 -50 -15 -58 0 -8 -7 -21 -15 -29 -8 -9
-15 -24 -15 -34 0 -10 -4 -21 -8 -24 -5 -3 -8 16 -6 42 2 26 7 115 13 197 8
138 22 205 42 205 4 0 11 -10 15 -22z m3579 -68 c-1 -25 -3 -52 -5 -60 -3 -9
7 -20 27 -29 18 -8 34 -20 37 -28 8 -20 -6 -300 -15 -315 -18 -28 -32 12 -36
96 -1 47 -9 104 -17 128 -8 24 -17 57 -21 75 -3 17 -17 38 -29 47 -30 19 -38
62 -20 104 12 29 17 33 46 30 32 -3 33 -4 33 -48z m-4225 -179 c0 -31 -23 -57
-40 -46 -15 9 -12 37 6 63 19 28 34 20 34 -17z m1087 -83 c14 -13 23 -33 23
-52 0 -17 6 -58 14 -91 8 -33 17 -82 21 -110 3 -27 17 -66 29 -85 13 -19 30
-57 39 -85 26 -76 125 -179 202 -210 42 -17 60 -29 60 -42 0 -15 -8 -18 -51
-18 -46 1 -56 5 -108 50 -32 28 -84 85 -117 129 -50 66 -59 85 -59 119 0 32
-7 48 -32 74 -29 30 -32 39 -39 130 -4 54 -11 108 -16 121 -9 24 -5 92 5 92 3
0 16 -10 29 -22z m-1187 -32 c0 -19 -39 -31 -53 -17 -9 9 -8 14 3 21 22 14 50
12 50 -4z m670 -180 c-4 -74 -10 -99 -25 -116 -18 -20 -20 -21 -33 -3 -16 22
-9 85 20 165 30 84 44 67 38 -46z m1149 -102 c23 -26 41 -55 41 -64 0 -9 -14
-44 -32 -76 -29 -55 -32 -68 -36 -173 -2 -71 1 -131 8 -158 11 -36 10 -46 -4
-68 -30 -45 -97 -44 -104 1 -2 11 13 38 34 62 l36 43 -7 107 c-3 59 -13 139
-21 177 -8 39 -14 79 -14 89 0 24 39 106 50 106 5 0 27 -21 49 -46z m-2445
-37 c13 -19 15 -132 17 -790 l1 -767 -36 -44 c-20 -25 -36 -48 -36 -53 0 -35
-25 -85 -48 -99 -21 -12 -29 -25 -30 -51 -3 -44 -16 -69 -43 -83 -40 -22 -100
43 -113 120 -3 22 -19 54 -35 73 -17 18 -46 71 -67 117 l-37 85 5 668 c4 554
8 671 19 683 12 11 21 11 59 0 56 -16 226 -15 258 3 31 17 41 47 30 95 -5 22
-7 45 -4 53 8 21 44 15 60 -10z m4992 -116 c17 -25 29 -52 27 -58 -7 -21 -39
-15 -72 13 -24 20 -31 34 -31 63 0 45 20 71 35 45 6 -9 24 -37 41 -63z m-3776
37 c0 -18 -8 -45 -18 -59 -42 -64 -95 -129 -103 -129 -6 0 -31 -20 -57 -44
-61 -58 -90 -65 -127 -33 -16 13 -25 28 -22 34 3 5 32 16 64 23 76 19 165 98
205 182 31 66 58 78 58 26z m2855 -119 c24 -37 -33 -82 -75 -59 -28 15 -25 27
13 50 36 22 53 25 62 9z m201 -52 c20 -18 25 -29 20 -45 -20 -63 -192 -71
-211 -11 -9 27 -2 34 47 48 24 7 52 17 63 21 34 14 53 11 81 -13z m319 -7 c55
-21 2 -91 -58 -76 -30 7 -50 37 -41 60 9 24 57 32 99 16z m216 -9 c28 -22 65
-88 56 -98 -11 -10 -77 30 -99 60 -16 22 -17 31 -8 42 16 19 22 19 51 -4z
m-5378 -188 c3 -38 6 -200 7 -362 0 -162 3 -297 5 -300 2 -4 5 -173 6 -376 l2
-368 -23 -19 c-20 -17 -34 -19 -90 -14 -36 4 -145 9 -243 12 -98 3 -188 9
-200 15 -15 6 37 8 160 5 l182 -4 35 26 c53 41 54 69 3 115 l-42 37 25 21 c14
11 33 27 43 34 34 29 12 63 -56 85 -52 16 -81 7 -107 -36 -36 -57 -45 -58
-317 -33 -133 13 -161 25 -129 57 15 15 19 15 29 2 25 -32 64 -39 169 -34 153
8 228 38 228 90 0 14 7 32 15 40 12 13 16 11 31 -12 16 -24 22 -26 67 -20 59
6 87 28 87 67 0 41 -17 72 -51 92 -37 20 -35 28 11 59 45 30 53 78 18 102 -28
20 -133 22 -142 4 -3 -7 -3 -2 0 12 10 40 24 50 66 50 21 0 52 7 68 15 26 13
30 21 30 55 0 34 -4 42 -30 55 -33 17 -39 45 -14 66 23 19 44 64 44 96 0 19
-10 37 -32 56 l-33 27 21 18 c12 9 30 22 39 28 12 6 18 22 18 43 0 26 -7 40
-33 61 -33 27 -34 28 -17 54 10 14 21 26 26 26 5 0 20 16 33 37 12 20 30 47
38 60 29 45 47 30 53 -44z m1380 7 c23 -38 56 -46 96 -26 38 20 80 22 146 6
28 -6 93 -11 146 -11 77 1 99 -3 110 -15 11 -14 10 -18 -6 -31 -16 -11 -38
-13 -101 -8 -85 7 -119 -3 -196 -56 -38 -27 -48 -24 -93 27 -49 54 -64 52
-102 -17 -14 -27 -29 -49 -32 -49 -3 0 -40 13 -81 28 -55 20 -79 35 -90 55
-23 42 0 74 75 102 85 32 107 31 128 -5z m1192 -10 c47 -24 73 -30 122 -30 34
0 74 -5 90 -11 27 -10 27 -11 9 -25 -13 -9 -46 -14 -95 -14 -62 0 -85 -5 -123
-25 -66 -35 -94 -32 -140 12 -21 20 -38 43 -38 50 0 16 77 73 99 73 9 0 43
-14 76 -30z m-484 -1 c30 -12 65 -25 78 -30 18 -8 21 -12 12 -23 -7 -8 -24
-17 -39 -21 -15 -3 -46 -20 -70 -36 -52 -38 -73 -34 -126 20 -44 46 -42 57 23
91 46 24 57 24 122 -1z m247 -46 c-2 -12 -12 -18 -28 -18 -16 0 -26 6 -28 18
-3 13 3 17 28 17 25 0 31 -4 28 -17z m2533 -203 c16 -22 17 -31 7 -68 -8 -34
-8 -52 3 -84 13 -40 12 -41 -16 -64 -43 -34 -69 -37 -109 -12 -40 26 -46 56
-16 83 15 14 20 31 20 70 0 94 66 138 111 75z m-5143 -245 c2 -26 -5 -35 -48
-64 -28 -19 -53 -31 -56 -28 -9 9 5 60 27 96 15 26 25 32 47 29 22 -2 27 -9
30 -33z m4941 -45 c25 -13 34 -39 20 -57 -10 -11 -15 -11 -30 3 -11 10 -19 28
-19 41 0 26 3 27 29 13z m-901 -26 c12 -8 22 -25 22 -38 0 -21 -4 -23 -71 -24
-89 -3 -144 -29 -153 -75 -11 -56 -7 -103 12 -119 40 -36 101 -58 161 -58 54
0 59 -2 54 -20 -9 -33 -32 -44 -94 -42 -76 2 -111 20 -127 66 -7 20 -27 49
-44 66 -26 27 -30 36 -25 68 4 21 17 46 30 57 13 11 38 42 56 68 18 27 43 52
54 57 35 14 101 11 125 -6z m84 -91 c20 -18 24 -58 7 -69 -16 -9 -38 16 -45
54 -7 37 8 43 38 15z m837 -65 c10 -27 -12 -58 -41 -58 -24 0 -25 55 0 69 25
15 32 13 41 -11z m291 -19 c0 -20 -24 -26 -35 -9 -8 13 14 42 26 34 5 -3 9
-14 9 -25z m-1120 -69 c0 -29 -17 -46 -39 -38 -12 4 14 68 29 68 5 0 10 -14
10 -30z m1010 0 c20 -20 27 -64 12 -74 -17 -10 -112 27 -118 46 -14 46 67 67
106 28z m-5130 -50 c-9 -6 -19 -5 -25 1 -6 6 -5 13 5 19 9 6 19 5 25 -1 6 -6
5 -13 -5 -19z m2545 -5 c635 -9 763 -13 784 -24 26 -14 38 -58 23 -82 -8 -13
-9 -26 -2 -44 12 -31 13 -86 2 -100 -4 -5 -20 -17 -37 -26 -16 -10 -40 -31
-52 -49 -30 -43 -19 -71 38 -90 43 -15 44 -16 47 -65 4 -66 -3 -90 -33 -103
-22 -10 -25 -18 -25 -64 -1 -29 -6 -69 -13 -88 -7 -19 -10 -51 -7 -70 6 -35
-2 -59 -29 -92 -20 -26 -7 -58 47 -113 54 -57 56 -77 8 -100 -19 -9 -40 -30
-50 -52 l-17 -36 -77 6 c-45 3 -97 15 -122 26 -58 26 -90 27 -97 2 -6 -22 -56
-46 -91 -43 -14 1 -40 12 -59 23 -31 19 -38 20 -79 9 -24 -7 -47 -17 -50 -21
-3 -5 -41 -9 -84 -9 -115 0 -114 -3 -109 270 2 122 0 557 -4 716 -2 127 -10
144 -67 144 -63 0 -75 -23 -77 -154 -4 -151 -4 -133 0 -391 2 -148 -1 -244 -9
-270 -6 -22 -7 -51 -3 -65 12 -42 10 -193 -4 -219 -18 -37 -59 -44 -162 -27
-49 8 -133 18 -186 21 -85 5 -101 4 -136 -15 -36 -18 -55 -20 -198 -18 -210 3
-198 -8 -205 185 -3 81 -4 338 -1 571 4 382 6 425 21 445 l18 22 393 -3 c217
-2 534 -5 704 -7z m2279 -20 c-4 -8 -8 -15 -10 -15 -2 0 -4 7 -4 15 0 8 4 15
10 15 5 0 7 -7 4 -15z m-70 -121 c8 -20 -11 -54 -29 -54 -17 0 -19 23 -5 51
13 23 26 24 34 3z m370 -230 c22 -22 20 -44 -4 -44 -11 0 -20 6 -20 14 0 8 -3
21 -6 30 -8 21 10 21 30 0z m-294 -38 c0 -24 -81 -101 -94 -89 -17 17 -3 54
34 87 43 39 60 39 60 2z m-240 -3 c-1 -10 -38 -79 -65 -121 -11 -18 -25 -32
-31 -32 -13 0 -25 78 -15 98 17 32 112 79 111 55z m-5582 -88 c10 -21 9 -26
-9 -35 -25 -14 -39 -5 -39 24 0 43 30 50 48 11z m1563 -475 c12 0 105 -93 119
-120 38 -70 -71 -210 -153 -197 -82 14 -122 26 -133 42 -7 9 -16 49 -19 89 -8
78 2 113 43 149 23 21 101 48 120 41 8 -2 18 -4 23 -4z m-1701 -34 c0 -3 -4
-8 -10 -11 -5 -3 -10 -1 -10 4 0 6 5 11 10 11 6 0 10 -2 10 -4z m136 -67 c27
-52 3 -172 -36 -184 -41 -13 -44 11 -9 54 32 40 32 42 21 92 -7 28 -12 55 -12
60 0 20 20 7 36 -22z m-226 -42 c0 -31 -19 -50 -37 -36 -16 14 -17 31 -1 47
19 19 38 14 38 -11z m5449 -9 c13 -22 13 -29 2 -42 -27 -33 -105 -9 -85 26 30
53 59 59 83 16z m-5374 -115 c39 -18 46 -33 15 -33 -29 0 -70 21 -70 37 0 17
12 17 55 -4z m713 -119 c12 -8 22 -20 22 -25 0 -18 -74 -43 -143 -48 -5 -1
-35 -26 -68 -58 l-59 -56 0 -63 c0 -62 0 -63 -46 -103 -26 -23 -53 -41 -60
-41 -22 0 -28 -47 -10 -75 18 -27 37 -30 100 -15 44 10 60 4 62 -23 2 -23 -41
-52 -89 -61 -61 -11 -137 -107 -137 -173 0 -26 -5 -34 -24 -39 -14 -3 -30 -3
-36 1 -6 3 -36 3 -67 -1 -44 -5 -63 -13 -83 -34 -124 -134 -129 -163 -45 -261
57 -66 94 -87 153 -88 l32 -1 1 70 c1 39 3 75 4 80 1 6 4 25 5 43 2 30 3 30
12 -13 6 -25 21 -81 34 -124 13 -44 24 -96 24 -116 0 -45 24 -117 50 -148 15
-19 22 -21 45 -12 60 23 95 11 109 -37 6 -20 4 -23 -19 -23 -14 0 -47 5 -72
12 -43 10 -47 10 -65 -12 -10 -12 -18 -33 -18 -46 0 -29 -13 -31 -39 -5 -14
14 -21 41 -26 98 -11 112 -14 116 -125 180 -36 20 -103 68 -149 106 -47 37
-98 71 -113 74 -27 5 -28 8 -28 68 0 66 7 78 52 89 28 6 94 58 212 167 40 36
81 71 93 77 24 13 47 69 63 155 7 32 18 61 26 64 19 7 18 42 -3 65 -13 15 -32
18 -108 18 -118 0 -155 7 -155 30 0 29 54 44 159 42 153 -1 196 17 256 112 14
22 47 56 73 73 26 18 57 40 69 49 19 14 86 42 103 44 3 0 16 -7 28 -16z m262
-9 c16 -8 36 -25 44 -37 20 -28 20 -87 1 -112 -38 -50 0 -89 103 -106 44 -7
100 -9 138 -5 70 7 104 1 104 -20 0 -23 -29 -32 -74 -24 -100 20 -146 1 -175
-69 -7 -17 -16 -32 -20 -32 -4 0 -25 18 -46 40 -21 22 -45 40 -53 40 -7 0 -20
16 -28 36 -10 23 -26 40 -47 49 -48 20 -93 73 -117 138 -26 68 -23 74 48 99
60 21 86 22 122 3z m1795 -51 c279 -31 279 -31 283 -127 2 -56 -2 -77 -27
-135 -16 -37 -34 -95 -40 -129 -16 -103 -43 -125 -124 -104 -39 10 -204 42
-288 55 -73 12 -118 -26 -97 -82 12 -30 46 -51 108 -67 14 -4 57 -21 95 -39
39 -18 86 -40 105 -50 49 -22 129 -79 168 -118 67 -66 83 -96 108 -193 25 -99
29 -171 15 -240 -38 -180 -41 -186 -89 -248 -26 -34 -53 -66 -60 -70 -7 -5
-28 -21 -45 -36 -18 -16 -43 -32 -57 -36 -14 -4 -56 -21 -95 -39 l-70 -31
-225 0 c-212 0 -232 2 -350 29 -143 33 -158 39 -169 70 -13 33 6 340 24 382
17 41 38 43 123 15 31 -11 86 -22 122 -26 36 -4 101 -13 146 -21 84 -15 118
-11 143 19 28 35 10 60 -78 104 -46 23 -107 49 -136 57 -28 9 -63 24 -76 34
-13 11 -42 29 -65 40 -23 12 -71 46 -107 77 -54 47 -73 72 -112 148 l-46 92
-2 135 -2 135 44 97 c31 67 58 110 90 142 60 60 150 125 181 132 14 4 66 17
115 29 120 31 210 31 490 -1z m1605 -24 c19 -19 20 -29 15 -148 -7 -170 -12
-207 -29 -240 -22 -42 -55 -52 -176 -52 -130 0 -155 -7 -168 -52 -6 -20 -10
-231 -11 -553 0 -286 0 -527 0 -536 -1 -9 -9 -27 -19 -39 -19 -23 -20 -23
-258 -21 -223 2 -240 3 -259 22 -19 19 -20 35 -23 571 -2 536 -3 551 -23 579
l-20 29 -135 0 -136 0 -29 29 c-34 34 -34 39 -14 232 14 140 23 170 60 188 12
6 241 10 613 10 581 1 592 1 612 -19z m1156 6 c13 -4 30 -19 38 -35 13 -25 13
-35 0 -82 -7 -30 -17 -101 -21 -159 -6 -97 -8 -107 -34 -132 l-27 -28 -201 0
c-195 0 -200 -1 -215 -22 -10 -14 -16 -44 -16 -79 0 -89 11 -95 179 -92 242 5
241 6 241 -188 0 -148 -8 -180 -47 -198 -14 -7 -87 -11 -178 -11 -140 0 -157
-2 -174 -19 -37 -37 -39 -124 -4 -163 14 -16 39 -18 221 -18 281 0 294 -7 273
-154 -6 -39 -13 -101 -17 -139 -4 -52 -11 -74 -31 -97 l-25 -30 -488 0 -489 0
-15 22 c-14 20 -16 112 -16 798 0 733 1 777 18 805 l19 30 492 -2 c271 -1 504
-4 517 -7z m946 -16 c9 -11 20 -46 23 -78 4 -31 15 -88 25 -127 10 -38 24
-124 30 -190 13 -140 27 -222 41 -231 18 -11 37 17 53 79 26 103 66 332 75
425 8 92 22 126 56 138 11 4 156 9 322 11 l302 5 25 -25 c31 -31 31 -38 52
-492 30 -671 41 -1059 32 -1092 -5 -18 -17 -37 -28 -43 -11 -6 -103 -10 -219
-10 -197 0 -200 0 -228 24 l-28 24 2 235 c2 130 -1 246 -6 259 -8 22 -9 21
-28 -17 -45 -89 -86 -231 -98 -341 -14 -122 -29 -156 -79 -174 -47 -16 -361
-13 -396 5 -38 20 -56 72 -75 225 -17 143 -29 193 -51 215 -42 41 -55 1 -60
-183 -2 -87 -4 -172 -4 -190 0 -22 -8 -41 -25 -57 -24 -25 -25 -25 -224 -25
-197 0 -200 0 -228 24 -28 24 -28 26 -26 128 2 97 12 302 33 698 5 96 12 301
15 455 4 154 11 292 17 307 5 15 22 31 37 37 15 5 152 8 336 5 298 -3 311 -4
327 -24z m-5801 -251 c52 -37 32 -68 -44 -69 -15 0 -46 -9 -68 -21 -23 -11
-42 -19 -43 -17 -2 2 -9 25 -16 52 -12 45 -12 50 5 62 30 22 131 18 166 -7z
m-703 -6 c-2 -10 -27 -29 -57 -44 -41 -19 -58 -34 -73 -65 -10 -21 -26 -46
-34 -54 -14 -13 -17 -13 -29 3 -21 29 7 97 41 97 8 0 21 12 31 28 25 41 43 52
86 52 31 0 38 -3 35 -17z m1623 -50 c56 -57 70 -78 84 -127 15 -51 15 -69 5
-140 -7 -44 -16 -93 -22 -107 -9 -26 -68 -78 -68 -60 0 5 4 12 9 15 14 9 22
175 12 260 -8 69 -13 82 -43 113 -18 19 -49 43 -69 53 -58 30 -61 60 -6 60 24
0 44 -14 98 -67z m-651 47 c0 -11 -41 -77 -65 -103 -20 -23 -82 -14 -107 15
-23 26 -18 33 40 53 26 8 58 22 72 30 29 17 60 19 60 5z m150 -160 c8 -5 11
-10 5 -10 -5 -1 1 -6 15 -12 14 -6 28 -11 32 -10 3 1 18 -30 33 -68 23 -60 26
-79 20 -137 -10 -110 -15 -133 -30 -133 -18 0 -29 86 -22 172 4 48 1 78 -12
114 l-17 49 -75 0 c-74 0 -116 15 -103 36 7 12 135 11 154 -1z m-1262 -322 l5
-50 -32 16 c-33 18 -39 44 -25 116 l7 32 20 -32 c11 -18 22 -54 25 -82z m1555
45 c29 -36 43 -61 37 -67 -11 -11 -37 8 -45 33 -3 10 -23 25 -45 34 -37 14
-50 34 -33 50 17 18 43 2 86 -50z m-567 -59 c55 -60 64 -75 64 -114 0 -60 -10
-78 -66 -121 -54 -41 -56 -42 -114 -36 -114 12 -132 26 -146 115 -6 40 16 131
40 161 21 27 70 41 129 38 52 -3 60 -7 93 -43z m768 -105 c-1 -55 -5 -104 -10
-109 -10 -10 -104 18 -116 35 -4 6 -8 36 -8 68 l0 57 53 24 c84 39 82 40 81
-75z m-400 -75 c3 -9 6 -44 6 -79 l0 -63 45 -19 c54 -22 53 -39 -5 -93 -20
-19 -46 -55 -57 -80 -34 -76 -45 -81 -146 -67 -104 14 -112 30 -27 59 52 17
77 38 118 98 12 17 19 54 23 130 3 58 9 111 13 118 10 17 23 15 30 -4z m256
-41 c0 -19 -38 -63 -55 -63 -7 0 -20 -9 -29 -19 -17 -19 -56 -35 -56 -23 0 3
15 20 33 37 17 18 40 44 50 58 20 30 57 37 57 10z m-1612 -23 c7 -49 -34 -137
-55 -116 -11 11 -6 101 6 125 16 28 45 23 49 -9z m1831 -54 c7 -16 16 -75 19
-131 4 -95 3 -104 -17 -124 -12 -12 -26 -19 -31 -16 -6 4 -10 39 -11 78 0 40
-4 105 -8 145 -4 40 -5 75 -2 78 12 12 37 -3 50 -30z m-1849 -316 c0 -12 -3
-12 -16 2 -9 9 -13 21 -9 28 9 14 25 -5 25 -30z m1740 5 c34 -18 45 -48 44
-123 0 -64 -22 -91 -82 -99 -37 -5 -45 -2 -91 37 -33 28 -51 51 -51 65 0 20
60 110 84 127 18 13 65 9 96 -7z m-664 -3 c17 -11 34 -72 28 -98 -4 -15 -15
-25 -32 -28 -41 -8 -345 -2 -359 7 -15 10 -17 56 -3 91 8 22 16 26 48 26 21 0
63 -8 93 -19 54 -18 54 -18 124 5 78 26 85 27 101 16z m-791 -101 l49 -51 56
6 c62 7 103 31 108 63 4 26 2 26 65 -5 86 -43 98 -59 96 -124 -1 -30 3 -65 9
-77 15 -27 101 -103 117 -103 7 0 33 -11 59 -25 26 -14 53 -25 61 -25 8 0 35
11 61 25 26 14 55 25 66 25 11 0 27 15 39 35 20 33 62 56 76 41 13 -13 -17
-55 -51 -71 -20 -10 -36 -21 -36 -26 0 -17 -53 -43 -98 -47 -101 -9 -159 -4
-198 17 -56 29 -119 88 -157 145 -47 72 -71 86 -157 92 -51 4 -84 12 -103 26
-31 21 -76 18 -98 -8 -17 -21 -59 -18 -59 4 0 9 -9 23 -21 30 -18 11 -24 11
-41 -4 -22 -20 -50 -10 -56 20 -4 18 70 98 98 108 22 8 59 -15 115 -71z m1018
29 c5 -19 18 -47 29 -63 17 -24 26 -28 59 -26 41 3 66 -11 54 -31 -5 -8 -23
-11 -55 -7 -65 8 -114 -5 -155 -42 -55 -48 -72 -42 -86 33 -9 51 -4 62 40 86
20 12 47 37 60 56 28 41 42 40 54 -6z m537 -487 c40 -23 45 -69 16 -146 -12
-33 -27 -62 -33 -64 -6 -2 -25 16 -41 40 -17 24 -37 49 -46 56 -26 22 -20 78
10 106 31 29 55 31 94 8z m-1496 -8 c20 -9 42 -28 51 -45 31 -59 15 -66 -39
-16 -22 22 -48 36 -68 38 -22 2 -34 9 -36 21 -4 22 41 23 92 2z m2909 -16
c-25 -26 -83 -37 -83 -16 0 24 36 44 71 39 30 -4 30 -5 12 -23z m697 2 c0 -22
-37 -38 -52 -23 -17 17 -1 42 27 42 18 0 25 -5 25 -19z m-3546 -258 c-29 -21
-44 -16 -44 17 0 22 7 33 28 44 27 14 27 14 30 -17 3 -21 -2 -35 -14 -44z
m646 38 c11 -21 14 -169 4 -195 -8 -20 -30 -21 -38 -1 -14 37 -18 144 -6 179
13 40 24 45 40 17z m1515 -2 c9 -13 -5 -219 -15 -219 -9 0 -23 192 -14 213 7
19 20 22 29 6z m-18 -336 c-3 -10 -5 -4 -5 12 0 17 2 24 5 18 2 -7 2 -21 0
-30z m-1418 -284 c4 -88 -10 -124 -29 -75 -11 30 -14 135 -4 161 14 34 29 -7
33 -86z m-424 -200 c11 -17 -1 -21 -15 -4 -8 9 -8 15 -2 15 6 0 14 -5 17 -11z
m495 -28 c13 -26 13 -78 -1 -87 -17 -10 -29 16 -29 64 0 45 13 55 30 23z m157
-377 c-9 -9 -28 6 -21 18 4 6 10 6 17 -1 6 -6 8 -13 4 -17z"/>
<path d="M5443 10003 c-13 -33 -13 -41 -1 -63 28 -50 92 -29 90 30 -2 71 -63
94 -89 33z"/>
<path d="M5451 8474 c-27 -34 -27 -78 -1 -104 26 -26 34 -25 65 5 32 33 32 69
0 100 -31 31 -39 31 -64 -1z"/>
<path d="M2099 8469 c-20 -20 -21 -29 -16 -103 4 -44 10 -292 13 -551 l7 -469
23 -23 c45 -45 100 -25 108 40 3 23 8 279 11 569 6 597 11 558 -76 558 -37 0
-54 -5 -70 -21z"/>
<path d="M2102 7197 c-14 -15 -22 -36 -22 -60 0 -31 6 -41 47 -72 47 -36 89
-53 101 -41 8 8 31 89 39 132 7 43 -24 64 -92 64 -41 0 -56 -5 -73 -23z"/>
<path d="M3163 7290 c-52 -21 -52 -22 -54 -495 l-2 -440 33 -22 c40 -28 85
-29 127 -4 31 20 52 69 38 91 -4 6 -7 194 -6 418 0 304 -3 411 -12 423 -27 36
-78 48 -124 29z"/>
<path d="M3689 7279 c-15 -15 -19 -28 -14 -47 14 -55 37 -64 79 -31 30 24 33
50 9 71 -32 27 -52 29 -74 7z"/>
<path d="M4091 7274 c-26 -33 -26 -45 0 -78 37 -47 83 -25 83 40 0 37 -8 48
-40 58 -16 5 -27 0 -43 -20z"/>
<path d="M4392 7287 c-66 -21 -51 -86 25 -110 73 -23 258 -18 301 8 52 31 55
81 6 103 -31 15 -286 14 -332 -1z"/>
<path d="M4493 7104 c-16 -25 -16 -27 2 -40 23 -17 30 -17 56 -4 27 15 24 45
-6 58 -34 16 -32 16 -52 -14z"/>
<path d="M4242 7108 c-19 -19 -14 -36 14 -54 24 -16 26 -16 47 4 20 21 20 22
2 42 -20 23 -45 26 -63 8z"/>
<path d="M4100 6988 c-37 -40 -16 -118 32 -118 40 0 54 70 23 116 -19 30 -29
30 -55 2z"/>
<path d="M4646 6988 c-38 -54 -2 -126 58 -114 41 9 70 38 62 64 -22 67 -89 95
-120 50z"/>
<path d="M3686 6978 c-19 -27 -21 -69 -4 -86 29 -29 88 1 88 44 0 28 -28 64
-50 64 -10 0 -26 -10 -34 -22z"/>
<path d="M4372 6974 c-32 -22 -30 -71 4 -84 80 -31 128 21 76 83 -19 21 -51
22 -80 1z"/>
<path d="M4250 6825 c-16 -19 1 -65 24 -65 18 0 28 38 15 62 -12 22 -23 23
-39 3z"/>
<path d="M4510 6811 c-5 -11 -10 -29 -10 -40 0 -32 47 -28 62 5 11 22 10 28
-7 40 -25 19 -32 18 -45 -5z"/>
<path d="M3473 6811 c-73 -7 -87 -18 -86 -67 1 -49 17 -61 95 -68 60 -6 69 -4
92 16 37 32 44 80 17 107 -12 12 -29 20 -38 19 -10 0 -46 -4 -80 -7z"/>
<path d="M4646 6714 c-35 -35 -8 -124 37 -124 28 0 124 94 108 104 -6 4 -11 4
-11 1 0 -4 -15 3 -34 14 -40 25 -79 27 -100 5z"/>
<path d="M3687 6699 c-11 -15 -13 -29 -6 -52 5 -18 9 -33 9 -33 0 -1 7 -5 17
-8 39 -16 83 70 51 102 -19 19 -55 14 -71 -9z"/>
<path d="M4092 6708 c-29 -29 0 -118 39 -118 12 0 26 13 36 35 23 49 9 89 -32
93 -17 2 -36 -3 -43 -10z"/>
<path d="M4347 6713 c-13 -13 -7 -61 11 -82 22 -28 76 -43 95 -28 16 13 29 80
20 103 -4 10 -22 14 -62 14 -32 0 -61 -3 -64 -7z"/>
<path d="M4240 6552 c-49 -40 6 -101 66 -73 31 14 32 54 2 75 -29 21 -41 20
-68 -2z"/>
<path d="M4493 6563 c-18 -7 -16 -78 1 -92 20 -17 62 -4 81 25 15 23 14 26 -9
49 -24 24 -46 29 -73 18z"/>
<path d="M4097 6410 c-34 -27 -34 -60 -2 -90 21 -20 30 -22 52 -14 41 14 53
56 26 92 -26 35 -43 38 -76 12z"/>
<path d="M4653 6422 c-23 -15 -35 -64 -22 -89 23 -43 85 -43 136 1 l28 25 -39
35 c-37 35 -76 45 -103 28z"/>
<path d="M3679 6396 c-14 -29 -4 -75 16 -83 26 -9 64 6 82 33 17 26 16 27 -11
50 -36 32 -73 31 -87 0z"/>
<path d="M4358 6408 c-23 -18 -30 -51 -16 -71 12 -16 132 -40 143 -29 9 9 5
61 -7 87 -10 22 -18 25 -58 25 -25 0 -53 -6 -62 -12z"/>
<path d="M2022 6394 c-15 -7 -52 -77 -52 -100 0 -25 48 -84 68 -84 31 0 91 20
107 36 23 23 19 88 -8 119 -22 26 -85 42 -115 29z"/>
<path d="M1293 6008 c-31 -41 -14 -98 30 -98 48 0 63 34 36 79 -19 32 -49 40
-66 19z"/>
<path d="M1043 5189 c-28 -18 -33 -27 -33 -59 0 -27 8 -48 26 -69 22 -27 33
-31 72 -31 26 0 52 4 58 8 35 23 48 128 19 152 -29 24 -106 23 -142 -1z"/>
<path d="M1842 4562 c-8 -6 -12 -24 -10 -48 3 -34 6 -39 31 -42 55 -7 99 47
64 77 -19 15 -70 23 -85 13z"/>
</g>
</svg>
